<svg width="128" height="68" viewBox="0 0 128 68" fill="none" xmlns="http://www.w3.org/2000/svg">
<g clip-path="url(#clip0_3_15)">
<path d="M42.992 12.212C44.592 8.05204 46.448 5.07604 48.56 3.28403C50.736 1.42804 53.584 1.00002 57.104 1.00002C58.32 1.00002 59.5 1 62 1V10.004H59.12C57.584 10.004 56.304 10.324 55.28 10.964C54.256 11.54 53.424 12.596 52.784 14.132L31 68H18L10 1.00001H19L24.752 58.484L42.992 12.212Z" fill="#E8E8E8"/>
<path d="M23.64 30.56C29.656 30.56 34.936 31.648 39.48 33.824C44.088 35.936 47.64 39.04 50.136 43.136C52.696 47.168 53.976 51.968 53.976 57.536V68H44.088V57.44C44.088 51.232 41.976 46.496 37.752 43.232C33.592 39.968 27.256 38.336 18.744 38.336L9 38V68H0V0.999999H9V31C9 31 34.5 4 40 2C45.5 5.96046e-07 52 0.999999 52 0.999999V20.96H43V10L21.336 30.56H23.64Z" fill="#181818"/>
<path d="M85.64 30.56C91.656 30.56 96.936 31.648 101.48 33.824C106.088 35.936 109.64 39.04 112.136 43.136C114.696 47.168 115.976 51.968 115.976 57.536V68H106.088V57.44C106.088 51.232 103.976 46.496 99.752 43.232C95.592 39.968 89.256 38.336 80.744 38.336L71 38V68H62V0.999999H71V31C71 31 96.5 4 102 2C107.5 5.96046e-07 114 0.999999 114 0.999999V20.96H105V10L83.336 30.56H85.64Z" fill="#E8E8E8"/>
<path d="M118 68L110.672 51.744C106.768 56.608 102.32 60.576 97.328 63.648C92.336 66.656 87.056 68 82 68C77.968 68 74.672 67.392 71.6 65.856C68.592 64.256 66.224 62.048 64.496 59.232C62.832 56.352 62 53.088 62 49.44C62 45.28 63.28 41.6 65.84 38.4C68.4 35.2 71.984 32.032 76.592 28.896C80.944 25.76 84.368 22.848 86.864 20.16C89.424 17.472 91.216 14.848 92.24 12.288L86.576 0H96.656L128 68H118ZM82.448 58.944C86.8 58.944 91.056 57.504 95.216 54.624C99.44 51.68 103.216 47.744 106.544 42.816L96.56 21.408C95.408 23.52 93.808 25.504 91.76 27.36C89.776 29.152 86.768 31.616 82.736 34.752C79.024 37.568 76.304 40.032 74.576 42.144C72.912 44.256 72.08 46.624 72.08 49.248C72.08 52.128 73.04 54.464 74.96 56.256C76.88 58.048 79.376 58.944 82.448 58.944Z" fill="#181818"/>
</g>
<defs>
<clipPath id="clip0_3_15">
<rect width="128" height="68" fill="white"/>
</clipPath>
</defs>
</svg>
